<svg width="65" height="60" viewBox="0 0 65 60" fill="none" xmlns="http://www.w3.org/2000/svg">
<path fill-rule="evenodd" clip-rule="evenodd" d="M27.8084 45.1268L38.4582 54.2697L37.5707 37.1423L37.2749 35.7137L38.754 34.8565L56.4689 25.428H39.3457L37.2749 25.0565L36.6832 22.8565L35.7958 8.85654L26.3293 24.2851L25.7376 25.428H23.9627L6.33252 26.0511L17.1316 34.8565L18.7617 36.3286L18.0461 37.7137L8.30217 53.7008L24.5543 44.8411L26.3293 43.6982L27.8084 45.1268Z" fill="#D50000"/>
<path fill-rule="evenodd" clip-rule="evenodd" d="M64.4903 22.8571H57.0946H39.345L38.4575 6.57143L38.1617 0L34.6118 5.71429L23.962 22.8571H5.32489H0L3.2541 26L3.54993 26.2857L15.0872 36.2857L4.73324 53.1429L0.591655 60L7.69151 55.7143L25.4411 45.1429L37.2742 55.4286L41.12 58.5714L40.8241 53.7143L39.9367 36.8571L54.1364 28.5714L64.4903 22.8571ZM37.2745 35.7143L38.7537 34.8571L55.0242 26H39.6412H36.9787L36.6829 23.4286L35.7954 9.42857L26.3289 24.5714L25.4415 26H23.9623H7.10017L17.4541 34.8571L19.2291 36.2857L18.0458 38.2857L9.17096 52.5714L24.554 43.4286L26.3289 42.2857L27.8081 43.7143L38.162 52.8571L37.2745 37.4286V35.7143Z" fill="white"/>
</svg>
