<svg width="26" height="30" viewBox="0 0 26 30" fill="none" xmlns="http://www.w3.org/2000/svg">
<path d="M15.2881 7.91362L14.8721 7.81018V7.60328L15.2881 7.91362Z" fill="white"/>
<path fill-rule="evenodd" clip-rule="evenodd" d="M14.8385 29.9998L25.999 13.9676L22.9428 12.0084L22.7024 12.335C22.3246 12.89 21.7065 13.2819 21.0197 13.4125C20.2986 13.5431 19.6118 13.4125 19.028 13.0533C18.4442 12.6941 18.0321 12.1064 17.8948 11.4533C17.7574 10.8003 17.8948 10.1146 18.2725 9.55952L18.4442 9.233L16.8646 8.22078L16.6242 8.05752L16.1091 7.73099L15.3192 7.24121L13.1902 10.3105L4.15869 23.2735L7.28365 25.2326L7.52403 24.9061C7.90177 24.351 8.51989 23.9592 9.2067 23.8285C9.8935 23.6979 10.6146 23.8285 11.1984 24.1877C11.7822 24.5469 12.1943 25.1346 12.3317 25.7877C12.469 26.4407 12.3317 27.1264 11.9539 27.6815L11.7135 28.0407L14.8385 29.9998ZM21.8795 17.9512L21.3988 18.6369L20.2312 17.8859L20.712 17.2002L21.8795 17.9512ZM19.5098 17.4611L19.9906 16.7754L18.823 16.0244L18.3422 16.7101L19.5098 17.4611ZM18.135 15.5674L17.6542 16.2531L16.4867 15.5021L16.9674 14.8164L18.135 15.5674ZM15.7672 15.0773L16.248 14.3916L15.0804 13.6406L14.5997 14.3263L15.7672 15.0773ZM13.1895 12.4658L14.3571 13.2168L13.8763 13.9025L12.7087 13.1515L13.1895 12.4658Z" fill="white"/>
<path fill-rule="evenodd" clip-rule="evenodd" d="M7.4788 16.7531L15.3022 5.63932L16.7153 6.66165L17.6803 3.26487L14.0615 2.30849L13.9581 2.70423C13.7858 3.33082 13.3378 3.89146 12.7174 4.22124C12.097 4.55103 11.4077 4.61698 10.7185 4.45209C10.0292 4.2872 9.44327 3.85848 9.09863 3.26487C8.75398 2.70423 8.68505 2.01169 8.85738 1.35212L8.96077 0.956375L5.342 0L0 18.6988L3.61877 19.6552L3.72217 19.2594C4.13574 17.9403 5.54878 17.1158 6.96183 17.4786H6.99629L7.4788 16.7531ZM6.13544 6.79389L6.34223 6.00241L4.96365 5.63965L4.7224 6.43113L6.13544 6.79389ZM10.4769 7.94819L10.6837 7.15671L9.30511 6.79395L9.06386 7.58543L10.4769 7.94819ZM8.54732 6.59518L7.16874 6.23242L6.92749 7.0239L8.30607 7.38667L8.54732 6.59518ZM11.3043 8.1782L11.5455 7.38672L12.9241 7.74948L12.6829 8.54097L11.3043 8.1782Z" fill="white"/>
</svg>
