<svg width="26" height="16" viewBox="0 0 26 16" fill="none" xmlns="http://www.w3.org/2000/svg">
<path d="M25.3418 1.34917C25.5182 0.763134 25.3418 0.333374 24.5075 0.333374H21.7436C21.0404 0.333374 20.719 0.705161 20.5426 1.1135C20.5426 1.1135 19.1373 4.54023 17.1461 6.76213C16.5033 7.40866 16.2097 7.61282 15.8593 7.61282C15.6841 7.61282 15.4296 7.40866 15.4296 6.82262V1.34917C15.4296 0.645927 15.2267 0.333374 14.6406 0.333374H10.2977C9.85908 0.333374 9.59441 0.65853 9.59441 0.968562C9.59441 1.634 10.59 1.78775 10.6921 3.66307V7.73129C10.6921 8.62232 10.5321 8.78489 10.1792 8.78489C9.24279 8.78489 6.96418 5.34556 5.61189 1.4084C5.34849 0.643406 5.08257 0.334635 4.3768 0.334635H1.61424C0.824041 0.334635 0.666504 0.706421 0.666504 1.11476C0.666504 1.84825 1.6029 5.47789 5.02838 10.2783C7.31203 13.5564 10.527 15.3334 13.4559 15.3334C15.2115 15.3334 15.4283 14.9389 15.4283 14.2583V11.7806C15.4283 10.9917 15.5959 10.8329 16.1517 10.8329C16.5601 10.8329 17.2633 11.0396 18.9029 12.6187C20.7757 14.4915 21.0858 15.3321 22.1381 15.3321H24.9007C25.6896 15.3321 26.0841 14.9376 25.8572 14.1588C25.6089 13.3837 24.7141 12.2557 23.5269 10.9211C22.8817 10.1599 21.9176 9.34068 21.6239 8.93109C21.2143 8.40303 21.3328 8.16987 21.6239 7.70104C21.6252 7.7023 24.9914 2.96108 25.3418 1.34917Z" fill="white"/>
</svg>
